HIERARCHY
ROOT Hips
{
    OFFSET 0.000000 97.120003 0.000000
    CHANNELS 6 Xposition Yposition Zposition Yrotation Xrotation Zrotation
    JOINT RightUpLeg
    {
        OFFSET -11.000000 -0.000000 0.000000
        CHANNELS 3 Yrotation Xrotation Zrotation
        JOINT RightLeg
        {
            OFFSET 0.000000 -45.062000 0.000000
            CHANNELS 3 Yrotation Xrotation Zrotation
            JOINT RightFoot
            {
                OFFSET 0.000000 -42.057999 0.000000
                CHANNELS 3 Yrotation Xrotation Zrotation
                End Site
                {
                    OFFSET 0.000000 -10.000000 15.120000
                }
            }
        }
    }
    JOINT LeftUpLeg
    {
        OFFSET 11.000000 -0.000000 0.000000
        CHANNELS 3 Yrotation Xrotation Zrotation
        JOINT LeftLeg
        {
            OFFSET 0.000000 -45.062000 0.000000
            CHANNELS 3 Yrotation Xrotation Zrotation
            JOINT LeftFoot
            {
                OFFSET 0.000000 -42.057999 0.000000
                CHANNELS 3 Yrotation Xrotation Zrotation
                End Site
                {
                    OFFSET 0.000000 -10.000000 15.120000
                }
            }
        }
    }
    JOINT Spine
    {
        OFFSET 0.000000 8.120000 0.000000
        CHANNELS 3 Yrotation Xrotation Zrotation
        JOINT Spine1
        {
            OFFSET 0.000000 17.980000 0.000000
            CHANNELS 3 Yrotation Xrotation Zrotation
            JOINT Spine2
            {
                OFFSET 0.000000 12.760000 0.000000
                CHANNELS 3 Yrotation Xrotation Zrotation
                JOINT Neck
                {
                    OFFSET 0.000000 19.139999 0.000000
                    CHANNELS 3 Yrotation Xrotation Zrotation
                    JOINT Neck1
                    {
                        OFFSET 0.000000 4.250000 0.000000
                        CHANNELS 3 Yrotation Xrotation Zrotation
                        JOINT Head
                        {
                            OFFSET 0.000000 4.250000 0.000000
                            CHANNELS 3 Yrotation Xrotation Zrotation
                            End Site
                            {
                                OFFSET 0.000000 19.120001 0.000000
                            }
                        }
                    }
                }
                JOINT RightShoulder
                {
                    OFFSET -2.900000 13.340000 0.000000
                    CHANNELS 3 Yrotation Xrotation Zrotation
                    JOINT RightArm
                    {
                        OFFSET -16.100000 0.000000 0.000000
                        CHANNELS 3 Yrotation Xrotation Zrotation
                        JOINT RightForeArm
                        {
                            OFFSET -28.000000 0.000000 0.000000
                            CHANNELS 3 Yrotation Xrotation Zrotation
                            JOINT RightHand
                            {
                                OFFSET -26.000000 0.000000 0.000000
                                CHANNELS 3 Yrotation Xrotation Zrotation
                                JOINT RightHandThumb1
                                {
                                    OFFSET -1.937000 -0.484000 2.518000
                                    CHANNELS 3 Yrotation Xrotation Zrotation
                                    JOINT RightHandThumb2
                                    {
                                        OFFSET -3.872000 0.000000 0.000000
                                        CHANNELS 3 Yrotation Xrotation Zrotation
                                        JOINT RightHandThumb3
                                        {
                                            OFFSET -2.690000 0.000000 0.000000
                                            CHANNELS 3 Yrotation Xrotation Zrotation
                                            End Site
                                            {
                                                OFFSET -2.537000 0.000000 0.000000
                                            }
                                        }
                                    }
                                }
                                JOINT RightInHandIndex
                                {
                                    OFFSET -3.389000 0.535000 2.080000
                                    CHANNELS 3 Yrotation Xrotation Zrotation
                                    JOINT RightHandIndex1
                                    {
                                        OFFSET -5.485000 -0.096000 1.051000
                                        CHANNELS 3 Yrotation Xrotation Zrotation
                                        JOINT RightHandIndex2
                                        {
                                            OFFSET -3.806000 0.000000 0.000000
                                            CHANNELS 3 Yrotation Xrotation Zrotation
                                            JOINT RightHandIndex3
                                            {
                                                OFFSET -2.158000 0.000000 0.000000
                                                CHANNELS 3 Yrotation Xrotation Zrotation
                                                End Site
                                                {
                                                    OFFSET -1.898000 0.000000 0.000000
                                                }
                                            }
                                        }
                                    }
                                }
                                JOINT RightInHandMiddle
                                {
                                    OFFSET -3.556000 0.544000 0.796000
                                    CHANNELS 3 Yrotation Xrotation Zrotation
                                    JOINT RightHandMiddle1
                                    {
                                        OFFSET -5.441000 -0.088000 0.330000
                                        CHANNELS 3 Yrotation Xrotation Zrotation
                                        JOINT RightHandMiddle2
                                        {
                                            OFFSET -4.153000 0.000000 0.000000
                                            CHANNELS 3 Yrotation Xrotation Zrotation
                                            JOINT RightHandMiddle3
                                            {
                                                OFFSET -2.603000 0.000000 0.000000
                                                CHANNELS 3 Yrotation Xrotation Zrotation
                                                End Site
                                                {
                                                    OFFSET -2.076000 0.000000 0.000000
                                                }
                                            }
                                        }
                                    }
                                }
                                JOINT RightInHandRing
                                {
                                    OFFSET -3.539000 0.566000 -0.136000
                                    CHANNELS 3 Yrotation Xrotation Zrotation
                                    JOINT RightHandRing1
                                    {
                                        OFFSET -4.873000 -0.023000 -0.504000
                                        CHANNELS 3 Yrotation Xrotation Zrotation
                                        JOINT RightHandRing2
                                        {
                                            OFFSET -3.619000 0.000000 0.000000
                                            CHANNELS 3 Yrotation Xrotation Zrotation
                                            JOINT RightHandRing3
                                            {
                                                OFFSET -2.511000 0.000000 0.000000
                                                CHANNELS 3 Yrotation Xrotation Zrotation
                                                End Site
                                                {
                                                    OFFSET -1.952000 0.000000 0.000000
                                                }
                                            }
                                        }
                                    }
                                }
                                JOINT RightInHandPinky
                                {
                                    OFFSET -3.324000 0.494000 -1.264000
                                    CHANNELS 3 Yrotation Xrotation Zrotation
                                    JOINT RightHandPinky1
                                    {
                                        OFFSET -4.354000 -0.023000 -1.147000
                                        CHANNELS 3 Yrotation Xrotation Zrotation
                                        JOINT RightHandPinky2
                                        {
                                            OFFSET -2.898000 0.000000 0.000000
                                            CHANNELS 3 Yrotation Xrotation Zrotation
                                            JOINT RightHandPinky3
                                            {
                                                OFFSET -1.831000 0.000000 0.000000
                                                CHANNELS 3 Yrotation Xrotation Zrotation
                                                End Site
                                                {
                                                    OFFSET -1.730000 0.000000 0.000000
                                                }
                                            }
                                        }
                                    }
                                }
                            }
                        }
                    }
                }
                JOINT LeftShoulder
                {
                    OFFSET 2.900000 13.340000 0.000000
                    CHANNELS 3 Yrotation Xrotation Zrotation
                    JOINT LeftArm
                    {
                        OFFSET 16.100000 0.000000 0.000000
                        CHANNELS 3 Yrotation Xrotation Zrotation
                        JOINT LeftForeArm
                        {
                            OFFSET 28.000000 0.000000 0.000000
                            CHANNELS 3 Yrotation Xrotation Zrotation
                            JOINT LeftHand
                            {
                                OFFSET 26.000000 0.000000 0.000000
                                CHANNELS 3 Yrotation Xrotation Zrotation
                                JOINT LeftHandThumb1
                                {
                                    OFFSET 1.937000 -0.484000 2.518000
                                    CHANNELS 3 Yrotation Xrotation Zrotation
                                    JOINT LeftHandThumb2
                                    {
                                        OFFSET 3.872000 0.000000 0.000000
                                        CHANNELS 3 Yrotation Xrotation Zrotation
                                        JOINT LeftHandThumb3
                                        {
                                            OFFSET 2.690000 0.000000 0.000000
                                            CHANNELS 3 Yrotation Xrotation Zrotation
                                            End Site
                                            {
                                                OFFSET 2.537000 0.000000 0.000000
                                            }
                                        }
                                    }
                                }
                                JOINT LeftInHandIndex
                                {
                                    OFFSET 3.389000 0.535000 2.080000
                                    CHANNELS 3 Yrotation Xrotation Zrotation
                                    JOINT LeftHandIndex1
                                    {
                                        OFFSET 5.485000 -0.096000 1.051000
                                        CHANNELS 3 Yrotation Xrotation Zrotation
                                        JOINT LeftHandIndex2
                                        {
                                            OFFSET 3.806000 0.000000 0.000000
                                            CHANNELS 3 Yrotation Xrotation Zrotation
                                            JOINT LeftHandIndex3
                                            {
                                                OFFSET 2.158000 0.000000 0.000000
                                                CHANNELS 3 Yrotation Xrotation Zrotation
                                                End Site
                                                {
                                                    OFFSET 1.898000 0.000000 0.000000
                                                }
                                            }
                                        }
                                    }
                                }
                                JOINT LeftInHandMiddle
                                {
                                    OFFSET 3.556000 0.544000 0.796000
                                    CHANNELS 3 Yrotation Xrotation Zrotation
                                    JOINT LeftHandMiddle1
                                    {
                                        OFFSET 5.441000 -0.088000 0.330000
                                        CHANNELS 3 Yrotation Xrotation Zrotation
                                        JOINT LeftHandMiddle2
                                        {
                                            OFFSET 4.153000 0.000000 0.000000
                                            CHANNELS 3 Yrotation Xrotation Zrotation
                                            JOINT LeftHandMiddle3
                                            {
                                                OFFSET 2.603000 0.000000 0.000000
                                                CHANNELS 3 Yrotation Xrotation Zrotation
                                                End Site
                                                {
                                                    OFFSET 2.076000 0.000000 0.000000
                                                }
                                            }
                                        }
                                    }
                                }
                                JOINT LeftInHandRing
                                {
                                    OFFSET 3.539000 0.566000 -0.136000
                                    CHANNELS 3 Yrotation Xrotation Zrotation
                                    JOINT LeftHandRing1
                                    {
                                        OFFSET 4.873000 -0.023000 -0.504000
                                        CHANNELS 3 Yrotation Xrotation Zrotation
                                        JOINT LeftHandRing2
                                        {
                                            OFFSET 3.619000 0.000000 0.000000
                                            CHANNELS 3 Yrotation Xrotation Zrotation
                                            JOINT LeftHandRing3
                                            {
                                                OFFSET 2.511000 0.000000 0.000000
                                                CHANNELS 3 Yrotation Xrotation Zrotation
                                                End Site
                                                {
                                                    OFFSET 1.952000 0.000000 0.000000
                                                }
                                            }
                                        }
                                    }
                                }
                                JOINT LeftInHandPinky
                                {
                                    OFFSET 3.324000 0.494000 -1.264000
                                    CHANNELS 3 Yrotation Xrotation Zrotation
                                    JOINT LeftHandPinky1
                                    {
                                        OFFSET 4.354000 -0.023000 -1.147000
                                        CHANNELS 3 Yrotation Xrotation Zrotation
                                        JOINT LeftHandPinky2
                                        {
                                            OFFSET 2.898000 0.000000 0.000000
                                            CHANNELS 3 Yrotation Xrotation Zrotation
                                            JOINT LeftHandPinky3
                                            {
                                                OFFSET 1.831000 0.000000 0.000000
                                                CHANNELS 3 Yrotation Xrotation Zrotation
                                                End Site
                                                {
                                                    OFFSET 1.730000 0.000000 0.000000
                                                }
                                            }
                                        }
                                    }
                                }
                            }
                        }
                    }
                }
            }
        }
    }
}
MOTION
Frames: 4
Frame Time: 0.011111
-24.368752 91.100243 8.923522 102.560791 -175.789276 179.429184 15.790349 -26.920467 -7.906138 154.050903 159.444107 169.487320 4.522066 -6.336315 5.437959 3.051572 7.400003 1.610697 179.734406 154.944092 177.767960 167.625412 -162.253418 -175.723083 0.121011 3.180278 -1.331846 0.120949 3.121059 -2.224374 0.778036 2.298100 -2.860874 179.999573 175.688568 -177.801727 179.999527 174.970001 -177.723145 161.582001 176.079102 -179.866302 3.770575 0.100097 0.415514 5.082977 1.175974 83.359764 174.621872 172.912338 -179.640045 174.456619 175.936676 176.361954 36.293610 46.121506 15.003218 180.000000 179.999985 -163.897736 180.000000 179.999985 -169.275894 0.000000 -0.000000 0.000000 15.000002 -0.000022 31.110579 0.000018 -0.000007 25.454124 0.000013 -0.000003 17.817892 0.000000 -0.000000 0.000000 0.000007 -0.000024 32.907990 0.000023 -0.000014 32.907970 0.000020 -0.000004 21.916725 0.000000 -0.000000 0.000000 170.000015 -179.999969 -152.635941 0.000031 -0.000020 27.364067 0.000017 -0.000003 18.224466 0.000000 -0.000000 0.000000 160.000015 -179.999985 -159.380707 0.000019 -0.000012 30.928940 0.000015 -0.000006 20.598677 177.087784 -178.368744 178.840454 174.454178 178.091690 102.430893 178.500305 176.127060 178.382706 9.243106 2.412028 2.463219 129.148026 122.849258 153.696198 0.000000 0.000000 -12.739265 0.000002 -0.000002 -8.484363 0.000000 -0.000000 0.000000 165.000000 -179.999985 150.365128 179.999985 -180.000000 155.753311 180.000000 179.999985 163.027313 0.000000 -0.000000 0.000000 0.000004 -0.000001 -31.990423 180.000000 180.000000 148.009598 0.000000 0.000000 -21.305611 0.000000 -0.000000 0.000000 9.999993 -0.000011 -30.993032 180.000000 -179.999985 149.006973 179.999985 179.999985 159.358643 0.000000 -0.000000 0.000000 20.000011 -0.000003 -24.985664 0.000008 0.000010 -37.478474 180.000000 -180.000000 155.039337
-25.093212 90.900154 8.895326 102.702362 -175.947586 179.713882 14.955735 -26.389772 -7.666026 154.754639 159.600784 169.705811 4.414216 -7.256041 4.794970 2.984504 7.621325 1.414474 179.620758 154.999863 177.834015 167.627090 -162.263184 -175.858185 0.119353 3.149998 -1.328272 0.119342 3.091302 -2.218322 0.767610 2.275655 -2.853646 0.000091 4.231202 2.124956 0.000159 4.936408 2.200858 161.565643 176.156326 -179.890717 3.829703 0.110815 0.411355 5.173481 1.308039 83.203583 174.776306 172.949554 -179.642471 174.553986 176.028183 176.332336 36.325119 46.265900 14.926026 179.999969 -179.999985 -163.978546 179.999985 -179.999985 -169.329697 0.000000 -0.000000 0.000000 14.999494 -0.000786 31.140034 179.999969 -179.999237 -154.521820 0.000206 -0.000495 17.834730 0.000000 -0.000000 0.000000 179.999466 -179.999146 -147.050369 0.000027 -0.001000 32.949638 0.000380 -0.000552 21.944471 0.000000 -0.000000 0.000000 169.999451 -179.998962 -152.585526 179.999985 -179.998825 -152.585526 0.000343 -0.000686 18.258051 0.000000 -0.000000 0.000000 159.999786 -179.999527 -159.399689 179.999954 -179.999237 -149.099503 0.000229 -0.000448 20.579718 177.142593 -178.284348 178.882904 174.430389 177.786453 102.363266 178.271835 176.328217 178.249435 9.176476 2.555297 2.306597 129.069626 122.851608 153.560883 180.000000 -179.999985 167.232697 180.000000 -180.000000 171.496994 0.000000 -0.000000 0.000000 165.000015 -179.999878 150.397110 179.999969 -179.999908 155.779465 179.999939 -179.999954 163.045624 0.000000 -0.000000 0.000000 0.000032 -0.000105 -31.951092 179.999985 -179.999878 148.048920 179.999954 -179.999954 158.720566 0.000000 -0.000000 0.000000 10.000141 -0.000314 -30.953693 179.999969 -179.999680 149.046310 179.999863 -179.999817 159.384842 0.000000 -0.000000 0.000000 20.000143 -0.000295 -25.032904 0.000046 -0.000484 -37.549389 179.999847 -179.999725 154.992126
-25.836536 90.800102 8.871870 102.801727 -176.015198 179.906998 13.835897 -25.822201 -7.139705 156.363968 159.866516 170.153320 3.334542 -7.858212 4.096436 2.954461 8.003684 1.311611 179.507523 155.150528 177.885422 167.658432 -162.309433 -175.957047 0.115708 3.157907 -1.300002 0.115601 3.099004 -2.171068 0.745379 2.279356 -2.793132 179.999847 175.927826 -177.940399 179.999847 175.249115 -177.866821 161.834854 176.297653 -179.871719 3.896878 0.115705 0.366469 5.134964 1.253031 82.805054 174.849457 172.913223 -179.271179 174.659088 176.226974 176.164307 36.296711 45.750313 14.472362 179.999557 -179.999939 -164.090591 179.999725 -179.999863 -169.404312 0.000000 0.000005 0.000000 14.999167 -0.000702 31.351183 179.999741 -179.999161 -154.349045 0.000090 -0.000613 17.955688 0.000000 0.000005 0.000000 179.999115 -179.999161 -146.832932 179.999725 -179.998810 -146.832962 0.000273 -0.000760 22.089281 0.000000 0.000005 0.000000 169.999054 -179.998993 -152.329697 179.999619 -179.998657 -152.329681 0.000198 -0.000914 18.428442 0.000000 0.000005 0.000000 159.999588 -179.999466 -159.303375 179.999664 -179.999008 -148.955048 0.000148 -0.000683 20.675947 177.138367 -178.279419 179.134201 174.414215 177.535370 102.082672 177.996567 176.451508 178.117371 9.155729 2.681461 2.052553 128.901566 122.776779 153.326141 0.000032 0.000002 -12.786786 0.000020 0.000002 -8.515981 180.000000 -179.999985 -180.000000 165.000046 -179.999924 150.464020 180.000000 -179.999954 155.834152 179.999985 -179.999969 163.083923 180.000000 -179.999985 -180.000000 0.000058 -0.000079 -31.891529 0.000002 -0.000095 -31.891508 179.999969 -179.999954 158.760239 180.000000 -179.999985 -180.000000 10.000301 -0.000367 -30.838079 0.000058 -0.000466 -30.838072 179.999878 -179.999725 159.461838 180.000000 -179.999985 -180.000000 20.000315 -0.000385 -24.952085 0.000206 -0.000756 -37.428165 179.999817 -179.999512 155.072830
-26.579460 90.748016 8.849357 102.900642 -176.257095 -179.767990 12.685314 -25.374424 -6.761084 158.099991 160.424393 170.470825 2.182156 -7.950762 3.628552 2.847342 8.246134 1.075045 179.466660 155.330124 177.906097 167.669601 -162.371994 -176.015289 0.102002 3.111125 -1.297565 0.101941 3.052886 -2.166453 0.678608 2.241533 -2.790880 0.000376 4.001216 1.943496 0.000478 4.668075 2.012910 161.867401 176.373611 -179.919250 3.988601 0.112811 0.305244 5.066070 1.356462 82.742691 175.092316 172.887314 -179.206604 174.771072 176.557571 176.007385 35.793755 46.212452 14.999203 0.001585 0.000854 16.299200 0.000856 0.000840 10.855261 0.000000 -0.000000 0.000003 14.998935 -0.000671 31.533220 179.999557 -179.999069 -154.200104 179.999985 -179.999268 -161.940063 0.000000 -0.000000 0.000003 0.000506 0.000345 33.642239 0.000227 0.000557 33.642220 179.999924 179.999588 -157.594284 0.000000 -0.000000 0.000003 169.998520 -179.998856 -152.114197 179.999222 -179.998291 -152.114182 0.000078 -0.001239 18.571945 0.000000 -0.000000 0.000003 159.999481 -179.999496 -159.160736 179.999496 -179.999023 -148.741043 0.000053 -0.000722 20.818453 177.113831 -178.280533 179.357849 174.403259 177.289993 101.835587 177.728317 176.568207 178.018921 9.139117 2.847579 1.756060 128.720886 122.658134 153.136230 0.000018 -0.000007 -12.770216 0.000019 -0.000007 -8.504990 0.000005 -0.000000 0.000002 165.000076 -179.999908 150.483154 0.000008 -0.000101 -24.150139 180.000000 -179.999939 163.094910 0.000005 -0.000000 0.000002 0.000268 -0.000280 -31.932125 0.000073 -0.000379 -31.932117 179.999908 -179.999756 158.733215 0.000005 -0.000000 0.000002 10.000375 -0.000394 -30.701107 0.000134 -0.000512 -30.701069 179.999893 -179.999649 159.553085 0.000005 -0.000000 0.000002 20.000389 -0.000428 -24.804728 0.000271 -0.000817 -37.207111 179.999832 -179.999466 155.220078
